<svg width="24" height="24" viewBox="0 0 24 24" fill="none" xmlns="http://www.w3.org/2000/svg">
<path d="M2.45383 16.0606C2.73512 16.3418 3.11658 16.4998 3.51433 16.4998C3.91207 16.4998 4.29354 16.3418 4.57483 16.0606L11.9998 8.63558L19.4248 16.0606C19.7077 16.3338 20.0866 16.485 20.4799 16.4816C20.8732 16.4782 21.2494 16.3204 21.5276 16.0423C21.8057 15.7642 21.9634 15.388 21.9668 14.9947C21.9703 14.6014 21.8191 14.2225 21.5458 13.9396L13.0603 5.45408C12.779 5.17287 12.3976 5.0149 11.9998 5.0149C11.6021 5.0149 11.2206 5.17287 10.9393 5.45408L2.45383 13.9396C2.17262 14.2209 2.01465 14.6023 2.01465 15.0001C2.01465 15.3978 2.17262 15.7793 2.45383 16.0606Z" fill="white"/>
</svg>
